<svg data-v-0dd9719b="" version="1.0" xmlns="http://www.w3.org/2000/svg" xmlns:xlink="http://www.w3.org/1999/xlink" width="100%" height="100%" viewBox="0 0 340.000000 250.000000" preserveAspectRatio="xMidYMid meet" color-interpolation-filters="sRGB" style="margin: auto;"> <rect data-v-0dd9719b="" x="0" y="0" width="100%" height="100%" fill="#fff" fill-opacity="1" class="background"></rect> <rect data-v-0dd9719b="" x="0" y="0" width="100%" height="100%" fill="url(#watermark)" fill-opacity="1" class="watermarklayer"></rect> <g data-v-0dd9719b="" fill="#333" class="icon-text-wrapper icon-svg-group iconsvg" transform="translate(69.68000030517578,94.98619270324707)"><g class="iconsvg-imagesvg" transform="translate(0,0)"><g><rect fill="#333" fill-opacity="0" stroke-width="2" x="0" y="0" width="60" height="60.02761270184285" class="image-rect"></rect> <svg x="0" y="0" width="60" height="60.02761270184285" filtersec="colorsb374728283" class="image-svg-svg primary" style="overflow: visible;"><svg xmlns="http://www.w3.org/2000/svg" viewBox="0.003711700439453125 -0.0022791274823248386 99.95880889892578 100.00456237792969"><path d="M72.67 94.55c-6.59-32.3-7.85-62.5 0-89.1 36.33 18.55 36.45 70.48 0 89.1z" fill="#00b4e9"></path><path d="M58 .65a50 50 0 0 0-16.1 0c3.88 32 3.73 64.9 0 98.7a50 50 0 0 0 16.1 0c-3.7-33.8-3.85-66.75 0-98.7z" fill="#333"></path><path d="M27.27 94.55c6.59-32.3 7.86-62.5 0-89.1C-9 24-9.17 75.93 27.27 94.55z" fill="#f94151"></path></svg></svg> <!----></g></g> <g transform="translate(67.00000381469727,5.6688079833984375)"><g data-gra="path-name" fill-rule="" class="tp-name iconsvg-namesvg"><g transform="scale(1)"><g><path d="M17.16-25.03L17.16-25.03 22.55-25.03Q27.95-25.03 30.78-27.92 33.61-30.81 33.61-35.49L33.61-35.49Q33.61-45.24 22.88-45.24L22.88-45.24 17.23-45.24Q17.16-38.87 17.16-25.03ZM37.77-13.97L40.82-2.86 46.48-2.34 46.48 0Q44.07 0.78 40.56 0.78L40.56 0.78Q36.86 0.78 35.07-0.36 33.28-1.5 32.7-4.29L32.7-4.29 29.96-15.15Q28.99-19.37 27.07-20.9 25.16-22.43 20.8-22.43L20.8-22.43 17.16-22.43Q17.16-9.36 17.23-3.06L17.23-3.06 23.79-2.34 23.79 0 3.12 0 3.12-2.34 9.55-3.06Q9.69-9.36 9.69-22.3L9.69-22.3 9.69-25.61Q9.69-38.48 9.55-44.85L9.55-44.85 3.12-45.57 3.12-47.91 23.92-47.91Q32.11-47.91 36.59-44.62 41.08-41.34 41.08-35.49L41.08-35.49Q41.08-31.07 37.9-27.79 34.71-24.51 28.41-23.46L28.41-23.46Q32.5-22.75 34.58-20.57 36.66-18.39 37.77-13.97L37.77-13.97ZM75.47-30.36L90.68-2.99 95.94-2.34 95.94 0 76.96 0 76.96-2.34 82.62-2.99 70.85-24.83 64.35-16.9Q64.35-8 64.48-3.06L64.48-3.06 70.79-2.34 70.79 0 50.51 0 50.51-2.34 56.94-3.06Q57.07-9.36 57.07-22.3L57.07-22.3 57.07-25.61Q57.07-38.48 56.94-44.85L56.94-44.85 50.51-45.57 50.51-47.91 71.05-47.91 71.05-45.57 64.48-44.85Q64.35-38.55 64.35-25.61L64.35-25.61 64.35-20.73 83.53-44.59 77.55-45.57 77.55-47.91 93.99-47.91 93.99-45.57 87.23-44.59 75.47-30.36ZM117.33-45.24L117.33-45.24 113.16-45.24Q113.1-38.8 113.1-25.61L113.1-25.61 113.1-21.91 117-21.91Q123.31-21.91 126.3-25.06 129.28-28.21 129.28-33.73L129.28-33.73Q129.28-45.24 117.33-45.24ZM116.55-19.18L116.55-19.18 113.1-19.18Q113.1-8.64 113.16-3.06L113.16-3.06 120.12-2.34 120.12 0 99 0 99-2.34 105.43-3.06Q105.56-9.36 105.56-22.3L105.56-22.3 105.56-25.61Q105.56-38.48 105.43-44.85L105.43-44.85 99-45.57 99-47.91 118.17-47.91Q127.47-47.91 132.11-44.17 136.76-40.43 136.76-33.73L136.76-33.73Q136.76-27.23 131.82-23.21 126.88-19.18 116.55-19.18Z" transform="translate(-3.119999885559082, 47.90999984741211)"></path></g> <!----> <!----> <!----> <!----> <!----> <!----> <!----></g></g> <!----></g></g><defs v-gra="od"></defs></svg>